HIERARCHY
ROOT Hips
{
	OFFSET 0.00000 0.00000 0.00000
	CHANNELS 6 Xposition Yposition Zposition Zrotation Yrotation Xrotation 
	JOINT LHipJoint
	{
		OFFSET 0 0 0
		CHANNELS 3 Zrotation Yrotation Xrotation
		JOINT LeftHip
		{
			OFFSET 1.57314 -1.85774 0.63783
			CHANNELS 3 Zrotation Yrotation Xrotation
			JOINT LeftKnee
			{
				OFFSET 2.57982 -7.08799 0.00000
				CHANNELS 3 Zrotation Yrotation Xrotation
				JOINT LeftAnkle
				{
					OFFSET 2.63993 -7.25315 0.00000
					CHANNELS 3 Zrotation Yrotation Xrotation
					JOINT LeftToe
					{
						OFFSET 0.16864 -0.46332 2.12791
						CHANNELS 3 Zrotation Yrotation Xrotation
						End Site
						{
							OFFSET 0.00000 -0.00000 1.09718
						}
					}
				}
			}
		}
	}
	JOINT RHipJoint
	{
		OFFSET 0 0 0
		CHANNELS 3 Zrotation Yrotation Xrotation
		JOINT RightHip
		{
			OFFSET -1.56006 -1.85774 0.63784
			CHANNELS 3 Zrotation Yrotation Xrotation
			JOINT RightKnee
			{
				OFFSET -2.54246 -6.98536 0.00000
				CHANNELS 3 Zrotation Yrotation Xrotation
				JOINT RightAnkle
				{
					OFFSET -2.65791 -7.30256 0.00000
					CHANNELS 3 Zrotation Yrotation Xrotation
					JOINT RightToe
					{
						OFFSET -0.18435 -0.50650 2.16316
						CHANNELS 3 Zrotation Yrotation Xrotation
						End Site
						{
							OFFSET -0.00000 -0.00000 1.11780
						}
					}
				}
			}
		}
	}
	JOINT lowerback
	{
		OFFSET 0 0 0
		CHANNELS 3 Zrotation Yrotation Xrotation
		JOINT Chest
		{
			OFFSET -0.00136 1.92812 -0.29638
			CHANNELS 3 Zrotation Yrotation Xrotation
			JOINT Chest2
			{
				OFFSET -0.00528 1.96223 -0.02928
				CHANNELS 3 Zrotation Yrotation Xrotation
				JOINT lowerneck
				{
					OFFSET 0 0 0
					CHANNELS 3 Zrotation Yrotation Xrotation
					JOINT Neck
					{
						OFFSET -0.01015 1.75586 0.07797
						CHANNELS 3 Zrotation Yrotation Xrotation
						JOINT Head
						{
							OFFSET 0.05540 1.72452 0.04558
							CHANNELS 3 Zrotation Yrotation Xrotation
							End Site
							{
								OFFSET 0.02170 1.79958 0.00864
							}
						}
					}
				}
				JOINT LeftCollar
				{
					OFFSET 0 0 0
					CHANNELS 3 Zrotation Yrotation Xrotation
					JOINT LeftShoulder
					{
						OFFSET 3.16292 1.29277 -0.65728
CHANNELS 3 Zrotation Xrotation Yrotation
						JOINT LeftElbow
						{
OFFSET 0 -5.523020 -0.000000
CHANNELS 3 Zrotation Xrotation Yrotation
							JOINT LeftWrist
							{
OFFSET 0 -3.586750 -0.000000
CHANNELS 3 Zrotation Xrotation Yrotation
								JOINT lhand
								{
									OFFSET 0 0 0
CHANNELS 3 Zrotation Xrotation Yrotation
									JOINT LFingers
									{
OFFSET 0 -0.536410 -0.000000
CHANNELS 3 Zrotation Xrotation Yrotation
										End Site
										{
OFFSET 0 -0.432470 -0.000000
										}
									}
								}
								JOINT LThumb
								{
OFFSET 0 0.000000 0.000000
CHANNELS 3 Zrotation Xrotation Yrotation
									End Site
									{
OFFSET 0 -0.439070 0.439070
									}
								}
							}
						}
					}
				}
				JOINT RightCollar
				{
					OFFSET 0 0 0
					CHANNELS 3 Zrotation Yrotation Xrotation
					JOINT RightShoulder
					{
						OFFSET -3.08296 1.43376 -0.52927
CHANNELS 3 Zrotation Xrotation Yrotation
						JOINT RightElbow
						{
OFFSET 0 -5.847800 0.000000
CHANNELS 3 Zrotation Xrotation Yrotation
							JOINT RightWrist
							{
OFFSET 0 -3.627170 -0.000000
CHANNELS 3 Zrotation Xrotation Yrotation
								JOINT rhand
								{
									OFFSET 0 0 0
CHANNELS 3 Zrotation Xrotation Yrotation
									JOINT RFingers
									{
OFFSET 0 -0.650520 -0.000000
CHANNELS 3 Zrotation Xrotation Yrotation
										End Site
										{
OFFSET 0 -0.524460 -0.000000
										}
									}
								}
								JOINT RThumb
								{
OFFSET 0 0.000000 0.000000
CHANNELS 3 Zrotation Xrotation Yrotation
									End Site
									{
OFFSET 0 -0.532470 0.532470
									}
								}
							}
						}
					}
				}
			}
		}
	}
}
MOTION
Frames: 4
Frame Time: 0.008333333333333333
1.928200 18.448400 -23.861500 -4.534100 1.076400 6.624100 0.000000 0.000000 0.000000 -7.442300 -20.000300 -43.072800 11.072300 17.970300 63.016100 -0.088400 -6.018100 5.303200 0.743400 -5.507700 -15.362500 0.000000 0.000000 0.000000 30.362200 2.888600 26.891100 -0.099900 -2.038400 5.611900 -1.254400 -24.543500 24.851000 -0.295300 -3.494400 9.658300 5.052200 0.478900 16.545400 0.604300 1.690300 -0.650500 -2.627300 0.561200 -9.905500 -0.790900 -1.638900 -0.958900 2.789000 -1.968700 -10.751800 1.092400 -1.042700 -3.243600 -0.000000 -0.000000 0.000000 3.805200 35.514900 -39.722500 121.899500 -55.782200 87.234600 37.368000 -21.922800 -7.164600 0.000000 0.000000 0.000000 -7.125000 0.000000 0.000000 9.157900 38.813200 1.409600 -0.000000 -0.000000 0.000000 -14.506800 2.192100 44.935400 -132.698700 -51.847300 -95.964900 -36.491000 -22.765600 -26.683800 0.000000 0.000000 0.000000 7.125000 0.000000 -0.000000 -3.777400 -1.970000 -3.913400
1.931402 18.465073 -23.732436 -4.554341 1.031663 6.608090 0.000000 0.000000 0.000000 -7.425398 -20.004600 -42.807194 10.680283 17.755880 61.713594 -0.081927 -5.917694 5.407540 0.735418 -5.478425 -15.278402 0.000000 0.000000 0.000000 30.375145 2.832062 27.160915 -0.100563 -2.045010 5.630129 -1.400915 -24.461209 25.585174 -0.374550 -3.867388 10.712148 5.055608 0.494018 16.372835 0.613471 1.698396 -0.583304 -2.616070 0.571538 -9.732477 -0.897046 -1.613330 -1.062073 2.817475 -1.934027 -10.711958 1.117238 -1.021475 -3.210528 0.000000 0.000000 0.000000 3.571637 35.516981 -39.413301 121.937787 -55.771062 87.266231 37.457610 -21.641504 -7.311229 0.000000 0.000000 0.000000 -7.125000 0.000000 0.000000 9.248151 39.002598 1.378838 0.000000 0.000000 0.000000 -14.619556 2.172133 45.147990 -132.670202 -51.860062 -95.942486 -36.496077 -22.740967 -26.729886 0.000000 0.000000 0.000000 7.125000 0.000000 0.000000 -3.770539 -2.023428 -3.909626
1.934604 18.481747 -23.603373 -4.574582 0.986927 6.592080 0.000000 0.000000 0.000000 -7.408496 -20.008900 -42.541588 10.288267 17.541460 60.411087 -0.075455 -5.817289 5.511879 0.727436 -5.449149 -15.194303 0.000000 0.000000 0.000000 30.388090 2.775524 27.430729 -0.101227 -2.051620 5.648357 -1.547429 -24.378917 26.319347 -0.453799 -4.240375 11.765996 5.059016 0.509136 16.200270 0.622643 1.706493 -0.516107 -2.604840 0.581876 -9.559455 -1.003193 -1.587759 -1.165246 2.845950 -1.899354 -10.672116 1.142077 -1.000251 -3.177456 0.000000 0.000000 0.000000 3.338073 35.519063 -39.104102 121.976074 -55.759923 87.297862 37.547221 -21.360208 -7.457858 0.000000 0.000000 0.000000 -7.125000 0.000000 0.000000 9.338402 39.191997 1.348076 0.000000 0.000000 0.000000 -14.732313 2.152166 45.360580 -132.641704 -51.872825 -95.920072 -36.501155 -22.716335 -26.775972 0.000000 0.000000 0.000000 7.125000 0.000000 0.000000 -3.763677 -2.076855 -3.905852
1.937806 18.498420 -23.474309 -4.594824 0.942190 6.576070 0.000000 0.000000 0.000000 -7.391594 -20.013199 -42.275981 9.896250 17.327040 59.108581 -0.068982 -5.716883 5.616219 0.719454 -5.419874 -15.110205 0.000000 0.000000 0.000000 30.401036 2.718985 27.700544 -0.101890 -2.058230 5.666586 -1.693944 -24.296626 27.053521 -0.533049 -4.613363 12.819844 5.062424 0.524254 16.027705 0.631814 1.714589 -0.448911 -2.593610 0.592214 -9.386432 -1.109339 -1.562189 -1.268419 2.874425 -1.864681 -10.632274 1.166915 -0.979026 -3.144384 0.000000 0.000000 0.000000 3.104510 35.521144 -38.794903 122.014360 -55.748785 87.329494 37.636831 -21.078912 -7.604487 0.000000 0.000000 0.000000 -7.125000 0.000000 0.000000 9.428652 39.381395 1.317314 0.000000 0.000000 0.000000 -14.845069 2.132200 45.573170 -132.613207 -51.885587 -95.897658 -36.506232 -22.691702 -26.822058 0.000000 0.000000 0.000000 7.125000 0.000000 0.000000 -3.756816 -2.130283 -3.902079
